<svg xmlns="http://www.w3.org/2000/svg" xmlns:xlink="http://www.w3.org/1999/xlink" width="500" zoomAndPan="magnify" viewBox="0 0 375 112.499997" height="150" preserveAspectRatio="xMidYMid meet" version="1.0"><defs><g/><clipPath id="e73562e692"><path d="M 1 14.234375 L 64.296875 14.234375 L 64.296875 106 L 1 106 Z M 1 14.234375 " clip-rule="nonzero"/></clipPath></defs><path stroke-linecap="butt" transform="matrix(0, -0.746681, 0.746681, 0, 62.733254, 109.891591)" fill="none" stroke-linejoin="miter" d="M 0.00129331 2.502149 L 135.993664 2.502149 " stroke="#000000" stroke-width="5" stroke-opacity="1" stroke-miterlimit="4"/><g fill="#000000" fill-opacity="1"><g transform="translate(74.161935, 57.826781)"><g><path d="M 26.09375 0.859375 C 21.53125 0.859375 17.425781 -0.101562 13.78125 -2.03125 C 10.144531 -3.96875 7.285156 -6.640625 5.203125 -10.046875 C 3.128906 -13.460938 2.09375 -17.3125 2.09375 -21.59375 C 2.09375 -25.863281 3.128906 -29.707031 5.203125 -33.125 C 7.285156 -36.539062 10.144531 -39.210938 13.78125 -41.140625 C 17.425781 -43.078125 21.53125 -44.046875 26.09375 -44.046875 C 30.65625 -44.046875 34.753906 -43.078125 38.390625 -41.140625 C 42.035156 -39.210938 44.894531 -36.539062 46.96875 -33.125 C 49.050781 -29.707031 50.09375 -25.863281 50.09375 -21.59375 C 50.09375 -17.3125 49.050781 -13.460938 46.96875 -10.046875 C 44.894531 -6.640625 42.035156 -3.96875 38.390625 -2.03125 C 34.753906 -0.101562 30.65625 0.859375 26.09375 0.859375 Z M 26.09375 -9.25 C 28.269531 -9.25 30.242188 -9.765625 32.015625 -10.796875 C 33.785156 -11.828125 35.179688 -13.273438 36.203125 -15.140625 C 37.234375 -17.015625 37.75 -19.164062 37.75 -21.59375 C 37.75 -24.019531 37.234375 -26.164062 36.203125 -28.03125 C 35.179688 -29.90625 33.785156 -31.351562 32.015625 -32.375 C 30.242188 -33.40625 28.269531 -33.921875 26.09375 -33.921875 C 23.914062 -33.921875 21.941406 -33.40625 20.171875 -32.375 C 18.398438 -31.351562 17 -29.90625 15.96875 -28.03125 C 14.945312 -26.164062 14.4375 -24.019531 14.4375 -21.59375 C 14.4375 -19.164062 14.945312 -17.015625 15.96875 -15.140625 C 17 -13.273438 18.398438 -11.828125 20.171875 -10.796875 C 21.941406 -9.765625 23.914062 -9.25 26.09375 -9.25 Z M 26.09375 -9.25 "/></g></g></g><g fill="#000000" fill-opacity="1"><g transform="translate(128.812046, 57.826781)"><g><path d="M 25.53125 -33.984375 C 29.6875 -33.984375 33.03125 -32.75 35.5625 -30.28125 C 38.09375 -27.820312 39.359375 -24.101562 39.359375 -19.125 L 39.359375 0 L 27.640625 0 L 27.640625 -17.203125 C 27.640625 -21.773438 25.804688 -24.0625 22.140625 -24.0625 C 20.128906 -24.0625 18.515625 -23.398438 17.296875 -22.078125 C 16.085938 -20.765625 15.484375 -18.789062 15.484375 -16.15625 L 15.484375 0 L 3.765625 0 L 3.765625 -33.4375 L 14.921875 -33.4375 L 14.921875 -29.796875 C 16.242188 -31.148438 17.804688 -32.1875 19.609375 -32.90625 C 21.421875 -33.625 23.394531 -33.984375 25.53125 -33.984375 Z M 25.53125 -33.984375 "/></g></g></g><g fill="#000000" fill-opacity="1"><g transform="translate(174.209882, 57.826781)"><g><path d="M 37.9375 -16.65625 C 37.9375 -16.570312 37.875 -15.601562 37.75 -13.75 L 13.453125 -13.75 C 13.941406 -12.03125 14.894531 -10.707031 16.3125 -9.78125 C 17.726562 -8.851562 19.507812 -8.390625 21.65625 -8.390625 C 23.257812 -8.390625 24.644531 -8.613281 25.8125 -9.0625 C 26.988281 -9.519531 28.171875 -10.257812 29.359375 -11.28125 L 35.53125 -4.875 C 32.28125 -1.25 27.53125 0.5625 21.28125 0.5625 C 17.375 0.5625 13.9375 -0.175781 10.96875 -1.65625 C 8.007812 -3.144531 5.71875 -5.203125 4.09375 -7.828125 C 2.476562 -10.460938 1.671875 -13.445312 1.671875 -16.78125 C 1.671875 -20.070312 2.460938 -23.019531 4.046875 -25.625 C 5.628906 -28.238281 7.816406 -30.285156 10.609375 -31.765625 C 13.410156 -33.242188 16.554688 -33.984375 20.046875 -33.984375 C 23.378906 -33.984375 26.398438 -33.296875 29.109375 -31.921875 C 31.828125 -30.546875 33.976562 -28.550781 35.5625 -25.9375 C 37.144531 -23.320312 37.9375 -20.226562 37.9375 -16.65625 Z M 20.109375 -25.65625 C 18.296875 -25.65625 16.78125 -25.140625 15.5625 -24.109375 C 14.351562 -23.085938 13.585938 -21.691406 13.265625 -19.921875 L 26.953125 -19.921875 C 26.628906 -21.691406 25.859375 -23.085938 24.640625 -24.109375 C 23.429688 -25.140625 21.921875 -25.65625 20.109375 -25.65625 Z M 20.109375 -25.65625 "/></g></g></g><g fill="#000000" fill-opacity="1"><g transform="translate(216.276902, 57.826781)"><g/></g></g><g fill="#000000" fill-opacity="1"><g transform="translate(236.693596, 57.826781)"><g><path d="M 26.09375 0.859375 C 21.53125 0.859375 17.425781 -0.101562 13.78125 -2.03125 C 10.144531 -3.96875 7.285156 -6.640625 5.203125 -10.046875 C 3.128906 -13.460938 2.09375 -17.3125 2.09375 -21.59375 C 2.09375 -25.863281 3.128906 -29.707031 5.203125 -33.125 C 7.285156 -36.539062 10.144531 -39.210938 13.78125 -41.140625 C 17.425781 -43.078125 21.53125 -44.046875 26.09375 -44.046875 C 30.65625 -44.046875 34.753906 -43.078125 38.390625 -41.140625 C 42.035156 -39.210938 44.894531 -36.539062 46.96875 -33.125 C 49.050781 -29.707031 50.09375 -25.863281 50.09375 -21.59375 C 50.09375 -17.3125 49.050781 -13.460938 46.96875 -10.046875 C 44.894531 -6.640625 42.035156 -3.96875 38.390625 -2.03125 C 34.753906 -0.101562 30.65625 0.859375 26.09375 0.859375 Z M 26.09375 -9.25 C 28.269531 -9.25 30.242188 -9.765625 32.015625 -10.796875 C 33.785156 -11.828125 35.179688 -13.273438 36.203125 -15.140625 C 37.234375 -17.015625 37.75 -19.164062 37.75 -21.59375 C 37.75 -24.019531 37.234375 -26.164062 36.203125 -28.03125 C 35.179688 -29.90625 33.785156 -31.351562 32.015625 -32.375 C 30.242188 -33.40625 28.269531 -33.921875 26.09375 -33.921875 C 23.914062 -33.921875 21.941406 -33.40625 20.171875 -32.375 C 18.398438 -31.351562 17 -29.90625 15.96875 -28.03125 C 14.945312 -26.164062 14.4375 -24.019531 14.4375 -21.59375 C 14.4375 -19.164062 14.945312 -17.015625 15.96875 -15.140625 C 17 -13.273438 18.398438 -11.828125 20.171875 -10.796875 C 21.941406 -9.765625 23.914062 -9.25 26.09375 -9.25 Z M 26.09375 -9.25 "/></g></g></g><g fill="#000000" fill-opacity="1"><g transform="translate(291.343718, 57.826781)"><g><path d="M 20.96875 -15.671875 L 16.40625 -10.796875 L 16.40625 0 L 4.3125 0 L 4.3125 -43.1875 L 16.40625 -43.1875 L 16.40625 -25.234375 L 33.125 -43.1875 L 46.578125 -43.1875 L 28.9375 -24.0625 L 47.5 0 L 33.3125 0 Z M 20.96875 -15.671875 "/></g></g></g><g fill="#000000" fill-opacity="1"><g transform="translate(75.969277, 103.266142)"><g><path d="M 38.671875 -25.171875 L 30.171875 0 L 27.375 0 L 20 -21.46875 L 12.59375 0 L 9.8125 0 L 1.328125 -25.171875 L 4.0625 -25.171875 L 11.328125 -3.53125 L 18.84375 -25.171875 L 21.328125 -25.171875 L 28.734375 -3.421875 L 36.109375 -25.171875 Z M 38.671875 -25.171875 "/></g></g></g><g fill="#000000" fill-opacity="1"><g transform="translate(119.53337, 103.266142)"><g><path d="M 21.90625 -2.296875 L 21.90625 0 L 4.09375 0 L 4.09375 -25.171875 L 21.359375 -25.171875 L 21.359375 -22.875 L 6.765625 -22.875 L 6.765625 -13.921875 L 19.78125 -13.921875 L 19.78125 -11.65625 L 6.765625 -11.65625 L 6.765625 -2.296875 Z M 21.90625 -2.296875 "/></g></g></g><g fill="#000000" fill-opacity="1"><g transform="translate(147.197404, 103.266142)"><g><path d="M 19.96875 -12.984375 C 21.613281 -12.617188 22.882812 -11.90625 23.78125 -10.84375 C 24.6875 -9.78125 25.140625 -8.40625 25.140625 -6.71875 C 25.140625 -4.5625 24.34375 -2.898438 22.75 -1.734375 C 21.15625 -0.578125 18.800781 0 15.6875 0 L 4.09375 0 L 4.09375 -25.171875 L 14.96875 -25.171875 C 17.769531 -25.171875 19.941406 -24.609375 21.484375 -23.484375 C 23.035156 -22.359375 23.8125 -20.765625 23.8125 -18.703125 C 23.8125 -17.316406 23.46875 -16.132812 22.78125 -15.15625 C 22.101562 -14.1875 21.164062 -13.460938 19.96875 -12.984375 Z M 6.765625 -22.984375 L 6.765625 -13.84375 L 14.78125 -13.84375 C 16.820312 -13.84375 18.394531 -14.234375 19.5 -15.015625 C 20.601562 -15.796875 21.15625 -16.929688 21.15625 -18.421875 C 21.15625 -19.898438 20.601562 -21.03125 19.5 -21.8125 C 18.394531 -22.59375 16.820312 -22.984375 14.78125 -22.984375 Z M 15.640625 -2.1875 C 17.898438 -2.1875 19.601562 -2.570312 20.75 -3.34375 C 21.90625 -4.113281 22.484375 -5.3125 22.484375 -6.9375 C 22.484375 -10.082031 20.203125 -11.65625 15.640625 -11.65625 L 6.765625 -11.65625 L 6.765625 -2.1875 Z M 15.640625 -2.1875 "/></g></g></g><g fill="#000000" fill-opacity="1"><g transform="translate(177.919147, 103.266142)"><g/></g></g><g fill="#000000" fill-opacity="1"><g transform="translate(190.942173, 103.266142)"><g><path d="M 4.09375 -25.171875 L 14.34375 -25.171875 C 17.007812 -25.171875 19.359375 -24.640625 21.390625 -23.578125 C 23.429688 -22.515625 25.015625 -21.03125 26.140625 -19.125 C 27.273438 -17.21875 27.84375 -15.039062 27.84375 -12.59375 C 27.84375 -10.144531 27.273438 -7.96875 26.140625 -6.0625 C 25.015625 -4.15625 23.429688 -2.664062 21.390625 -1.59375 C 19.359375 -0.53125 17.007812 0 14.34375 0 L 4.09375 0 Z M 14.203125 -2.296875 C 16.410156 -2.296875 18.34375 -2.734375 20 -3.609375 C 21.65625 -4.484375 22.9375 -5.691406 23.84375 -7.234375 C 24.757812 -8.785156 25.21875 -10.570312 25.21875 -12.59375 C 25.21875 -14.601562 24.757812 -16.378906 23.84375 -17.921875 C 22.9375 -19.472656 21.65625 -20.6875 20 -21.5625 C 18.34375 -22.4375 16.410156 -22.875 14.203125 -22.875 L 6.765625 -22.875 L 6.765625 -2.296875 Z M 14.203125 -2.296875 "/></g></g></g><g fill="#000000" fill-opacity="1"><g transform="translate(224.253962, 103.266142)"><g><path d="M 21.90625 -2.296875 L 21.90625 0 L 4.09375 0 L 4.09375 -25.171875 L 21.359375 -25.171875 L 21.359375 -22.875 L 6.765625 -22.875 L 6.765625 -13.921875 L 19.78125 -13.921875 L 19.78125 -11.65625 L 6.765625 -11.65625 L 6.765625 -2.296875 Z M 21.90625 -2.296875 "/></g></g></g><g fill="#000000" fill-opacity="1"><g transform="translate(251.917993, 103.266142)"><g><path d="M 11.046875 0.21875 C 9.171875 0.21875 7.375 -0.078125 5.65625 -0.671875 C 3.945312 -1.273438 2.625 -2.070312 1.6875 -3.0625 L 2.734375 -5.109375 C 3.640625 -4.191406 4.847656 -3.453125 6.359375 -2.890625 C 7.867188 -2.328125 9.429688 -2.046875 11.046875 -2.046875 C 13.296875 -2.046875 14.984375 -2.457031 16.109375 -3.28125 C 17.234375 -4.113281 17.796875 -5.191406 17.796875 -6.515625 C 17.796875 -7.515625 17.488281 -8.3125 16.875 -8.90625 C 16.269531 -9.507812 15.523438 -9.972656 14.640625 -10.296875 C 13.753906 -10.628906 12.519531 -10.984375 10.9375 -11.359375 C 9.039062 -11.835938 7.53125 -12.300781 6.40625 -12.75 C 5.28125 -13.195312 4.3125 -13.875 3.5 -14.78125 C 2.695312 -15.695312 2.296875 -16.929688 2.296875 -18.484375 C 2.296875 -19.753906 2.628906 -20.910156 3.296875 -21.953125 C 3.972656 -23.003906 5.003906 -23.835938 6.390625 -24.453125 C 7.785156 -25.078125 9.515625 -25.390625 11.578125 -25.390625 C 13.015625 -25.390625 14.421875 -25.191406 15.796875 -24.796875 C 17.179688 -24.398438 18.378906 -23.851562 19.390625 -23.15625 L 18.484375 -21.046875 C 17.429688 -21.734375 16.304688 -22.25 15.109375 -22.59375 C 13.910156 -22.945312 12.734375 -23.125 11.578125 -23.125 C 9.367188 -23.125 7.707031 -22.695312 6.59375 -21.84375 C 5.476562 -21 4.921875 -19.90625 4.921875 -18.5625 C 4.921875 -17.550781 5.226562 -16.738281 5.84375 -16.125 C 6.457031 -15.519531 7.222656 -15.054688 8.140625 -14.734375 C 9.066406 -14.410156 10.3125 -14.054688 11.875 -13.671875 C 13.71875 -13.210938 15.207031 -12.757812 16.34375 -12.3125 C 17.488281 -11.875 18.457031 -11.203125 19.25 -10.296875 C 20.039062 -9.398438 20.4375 -8.1875 20.4375 -6.65625 C 20.4375 -5.382812 20.09375 -4.226562 19.40625 -3.1875 C 18.71875 -2.144531 17.664062 -1.316406 16.25 -0.703125 C 14.84375 -0.0859375 13.109375 0.21875 11.046875 0.21875 Z M 11.046875 0.21875 "/></g></g></g><g fill="#000000" fill-opacity="1"><g transform="translate(277.639499, 103.266142)"><g><path d="M 4.09375 -25.171875 L 6.765625 -25.171875 L 6.765625 0 L 4.09375 0 Z M 4.09375 -25.171875 "/></g></g></g><g fill="#000000" fill-opacity="1"><g transform="translate(292.101442, 103.266142)"><g><path d="M 21.828125 -12.59375 L 24.390625 -12.59375 L 24.390625 -2.984375 C 23.210938 -1.953125 21.816406 -1.160156 20.203125 -0.609375 C 18.597656 -0.0546875 16.910156 0.21875 15.140625 0.21875 C 12.617188 0.21875 10.351562 -0.332031 8.34375 -1.4375 C 6.332031 -2.539062 4.75 -4.066406 3.59375 -6.015625 C 2.445312 -7.972656 1.875 -10.164062 1.875 -12.59375 C 1.875 -15.007812 2.445312 -17.191406 3.59375 -19.140625 C 4.75 -21.097656 6.332031 -22.628906 8.34375 -23.734375 C 10.351562 -24.835938 12.628906 -25.390625 15.171875 -25.390625 C 17.097656 -25.390625 18.863281 -25.082031 20.46875 -24.46875 C 22.070312 -23.863281 23.425781 -22.960938 24.53125 -21.765625 L 22.875 -20.078125 C 20.882812 -22.035156 18.351562 -23.015625 15.28125 -23.015625 C 13.25 -23.015625 11.410156 -22.566406 9.765625 -21.671875 C 8.117188 -20.773438 6.828125 -19.523438 5.890625 -17.921875 C 4.960938 -16.328125 4.5 -14.550781 4.5 -12.59375 C 4.5 -10.625 4.960938 -8.847656 5.890625 -7.265625 C 6.828125 -5.679688 8.109375 -4.429688 9.734375 -3.515625 C 11.367188 -2.609375 13.207031 -2.15625 15.25 -2.15625 C 17.84375 -2.15625 20.035156 -2.800781 21.828125 -4.09375 Z M 21.828125 -12.59375 "/></g></g></g><g fill="#000000" fill-opacity="1"><g transform="translate(323.506661, 103.266142)"><g><path d="M 25.140625 -25.171875 L 25.140625 0 L 22.953125 0 L 6.765625 -20.4375 L 6.765625 0 L 4.09375 0 L 4.09375 -25.171875 L 6.296875 -25.171875 L 22.515625 -4.75 L 22.515625 -25.171875 Z M 25.140625 -25.171875 "/></g></g></g><g clip-path="url(#e73562e692)"><path fill="#000000" d="M 1.09375 71.339844 C 1.09375 74.929688 3.152344 78.082031 6.222656 79.625 C 5.582031 80.894531 5.246094 82.300781 5.246094 83.765625 C 5.246094 87.359375 7.308594 90.511719 10.378906 92.054688 C 9.425781 93.941406 9.148438 96.117188 9.625 98.273438 C 10.554688 102.472656 14.511719 105.511719 19.035156 105.511719 L 57.140625 105.511719 C 59.867188 105.511719 64.140625 104.652344 67.519531 103.0625 L 67.519531 58.671875 L 67.023438 58.417969 L 55.066406 32.578125 L 55.066406 18.53125 C 55.066406 17.902344 54.78125 17.304688 54.289062 16.914062 C 54.15625 16.8125 51.078125 14.390625 46.761719 14.390625 C 41.960938 14.390625 34.308594 21.972656 34.308594 30.957031 C 34.308594 36.625 36.34375 43.675781 37.613281 47.523438 L 11.96875 47.523438 C 6.378906 47.523438 1.625 51.648438 1.140625 56.914062 C 0.871094 59.867188 1.859375 62.703125 3.796875 64.820312 C 2.082031 66.53125 1.09375 68.851562 1.09375 71.339844 Z M 1.09375 71.339844 " fill-opacity="1" fill-rule="nonzero"/></g></svg>